# xmcd CD database file
#
# Track frame offsets:
#	150
#	18418
#	36079
#	54387
#	69852
#
# Disc length: 1164 seconds
#
# Revision: 1
# Processed by: cddbd v1.5.2PL0 Copyright (c) Steve Scherf et al.
# Submitted via: CDex 1.70beta3
#
DISCID=35048a05
DTITLE=MOB SQUAD TOKYO - 東方女犯坊
DYEAR=2008
DGENRE=Hardcore
TTITLE0=THE HANGING JUDGE
TTITLE1=GOD SELL THE QUEEN
TTITLE2=DOCROFANTASIA (rebuild)
TTITLE3=BURNER OF LIFE
TTITLE4=NATIVE PEDOPHILE
EXTD=YEAR: 2008
EXTT0=
EXTT1=
EXTT2=
EXTT3=
EXTT4=
PLAYORDER=
